<svg xmlns="http://www.w3.org/2000/svg" viewBox="0 0 512 512" width="512" height="512">
  <!-- Clean Base Squircle Tile -->
  <rect x="16" y="16" width="480" height="480" rx="112" ry="112" fill="#FFFFFF" />

  <!-- Lowercase/Uppercase Athletic 'P' Lettermark in Solid Black (clean, no green line) -->
  <!-- Vertical stem with rounded caps -->
  <rect x="136" y="160" width="64" height="264" rx="32" ry="32" fill="#0D0D0D" />
  <!-- Rounded bowl of the P -->
  <path
    d="M 236 156 C 296 156, 348 202, 348 266 C 348 330, 296 376, 236 376 C 182 376, 136 332, 136 266 C 136 200, 182 156, 236 156 Z M 236 216 C 206 216, 184 238, 184 266 C 184 294, 206 316, 236 316 C 266 316, 288 294, 288 266 C 288 238, 266 216, 236 216 Z"
    fill="#0D0D0D"
  />

  <!-- Whole Green Ball positioned right above the letter P (x=168, y=94) -->
  <defs>
    <radialGradient id="greenBallGrad" cx="35%" cy="30%" r="65%">
      <stop offset="0%" stopColor="#4ADE80" />
      <stop offset="45%" stopColor="#22C55E" />
      <stop offset="85%" stopColor="#16A34A" />
      <stop offset="100%" stopColor="#15803D" />
    </radialGradient>
  </defs>
  <g transform="translate(168, 92)">
    <circle cx="0" cy="0" r="42" fill="url(#greenBallGrad)" />
  </g>
</svg>
